HIERARCHY
ROOT Hips
{
	OFFSET -3.958830 18.904000 13.208200
	CHANNELS 6 Xposition Yposition Zposition Zrotation Yrotation Xrotation 
	JOINT LHipJoint
	{
		OFFSET 0.000000 0.000000 0.000000
		CHANNELS 3 Zrotation Yrotation Xrotation
		JOINT LeftUpLeg
		{
			OFFSET 1.800000 -1.400000 0.085000
			CHANNELS 3 Zrotation Yrotation Xrotation
			JOINT LeftLeg
			{
				OFFSET 2.215000 -6.000000 0.000000
				CHANNELS 3 Zrotation Yrotation Xrotation
				JOINT LeftFoot
				{
					OFFSET 2.500000 -6.900000 0.000000
					CHANNELS 3 Zrotation Yrotation Xrotation
					JOINT LeftToeBase
					{
						OFFSET 0.200000 -0.500000 1.950000
						CHANNELS 3 Zrotation Yrotation Xrotation
						End Site
						{
							OFFSET 0.000000 0.000000 0.000000
						}
					}
				}
			}
		}
	}
	JOINT RHipJoint
	{
		OFFSET 0.000000 0.000000 0.000000
		CHANNELS 3 Zrotation Yrotation Xrotation
		JOINT RightUpLeg
		{
			OFFSET -1.800000 -1.400000 0.085000
			CHANNELS 3 Zrotation Yrotation Xrotation
			JOINT RightLeg
			{
				OFFSET -2.215000 -6.000000 0.000000
				CHANNELS 3 Zrotation Yrotation Xrotation
				JOINT RightFoot
				{
					OFFSET -2.500000 -6.900000 0.000000
					CHANNELS 3 Zrotation Yrotation Xrotation
					JOINT RightToeBase
					{
						OFFSET -0.200000 -0.500000 1.950000
						CHANNELS 3 Zrotation Yrotation Xrotation
						End Site
						{
							OFFSET 0.000000 0.000000 0.000000
						}
					}
				}
			}
		}
	}
	JOINT LowerBack
	{
		OFFSET 0.000000 0.000000 0.000000
		CHANNELS 3 Zrotation Yrotation Xrotation
		JOINT Spine
		{
			OFFSET -0.087000 1.940000 -0.288900
			CHANNELS 3 Zrotation Yrotation Xrotation
			JOINT Spine1
			{
				OFFSET 0.000000 1.950000 0.060000
				CHANNELS 3 Zrotation Yrotation Xrotation
				JOINT Neck
				{
					OFFSET 0.000000 0.000000 0.000000
					CHANNELS 3 Zrotation Yrotation Xrotation
					JOINT Neck1
					{
						OFFSET 0.000000 1.600000 0.340000
						CHANNELS 3 Zrotation Yrotation Xrotation
						JOINT Head
						{
							OFFSET 0.000000 1.667000 -0.240000
							CHANNELS 3 Zrotation Yrotation Xrotation
							End Site
							{
								OFFSET 0.000000 0.000000 0.000000
							}
						}
					}
				}
				JOINT LeftShoulder
				{
					OFFSET 0.000000 0.000000 0.000000
					CHANNELS 3 Zrotation Yrotation Xrotation
					JOINT LeftArm
					{
						OFFSET 2.700000 1.550000 -0.730000
						CHANNELS 3 Zrotation Yrotation Xrotation
						JOINT LeftForeArm
						{
							OFFSET 5.450000 0.000000 0.000000
							CHANNELS 3 Zrotation Yrotation Xrotation
							JOINT LeftHand
							{
								OFFSET 3.450000 0.000000 0.000000
								CHANNELS 3 Zrotation Yrotation Xrotation
								JOINT LeftHandIndex1
								{
									OFFSET 0.750000 0.000000 0.000000
									CHANNELS 3 Zrotation Yrotation Xrotation
									End Site
									{
										OFFSET 0.000000 0.000000 0.000000
									}
								}
							}
						}
					}
				}
				JOINT RightShoulder
				{
					OFFSET 0.000000 0.000000 0.000000
					CHANNELS 3 Zrotation Yrotation Xrotation
					JOINT RightArm
					{
						OFFSET -2.700000 1.550000 -0.730000
						CHANNELS 3 Zrotation Yrotation Xrotation
						JOINT RightForeArm
						{
							OFFSET -5.450000 0.000000 0.000000
							CHANNELS 3 Zrotation Yrotation Xrotation
							JOINT RightHand
							{
								OFFSET -3.450000 0.000000 0.000000
								CHANNELS 3 Zrotation Yrotation Xrotation
								JOINT RightHandIndex1
								{
									OFFSET -0.750000 0.000000 0.000000
									CHANNELS 3 Zrotation Yrotation Xrotation
									End Site
									{
										OFFSET 0.000000 0.000000 0.000000
									}
								}
							}
						}
					}
				}
			}
		}
	}
}
MOTION
Frames: 10
Frame Time: 0.016667
2.339800 17.803990 -1.124180 -0.463683 -19.556895 -14.425019 -14.305742 9.450106 2.469763 -44.863489 6.201434 -41.826229 68.339695 -4.218628 25.583229 0.950743 10.833323 0.943903 0.610760 0.250560 0.107760 19.471663 -10.051978 6.259540 -28.534203 38.218758 -22.297816 78.951081 -19.971742 30.174421 -2.444724 -10.929413 1.064084 0.245050 0.332170 -0.062750 -7.451949 7.321306 -9.199454 53.366550 4.188516 43.714859 -21.030326 14.734994 29.752473 11.851050 -15.227946 -16.615389 -28.385145 6.520619 50.964007 6.995960 -17.028810 -21.798660 -1.334328 -15.083827 15.187115 -38.154326 15.143759 -12.162587 -35.769217 -75.096560 15.741043 -2.527055 3.944043 0.804630 -0.127670 -0.156620 0.343520 -19.361282 33.368748 -9.164767 11.271609 43.872960 -16.413150 -79.785654 72.576266 -53.082904 6.056891 -3.576983 -0.346780 0.652450 0.113440 -0.156220 
2.418500 17.840950 -1.177180 2.378326 -16.595649 -15.410240 -14.297786 9.170507 2.716328 -47.555672 4.159817 -43.197913 68.730916 -6.379138 29.318948 0.839127 11.664503 0.622772 0.489040 0.057220 0.074360 19.513841 -9.767600 6.269409 -29.851288 37.745315 -21.284748 83.433620 -18.884694 27.273229 -2.334811 -10.720180 1.054498 0.246310 0.415470 -0.087400 -7.333668 7.191850 -9.369053 50.157350 4.148414 46.366712 -21.695989 14.294353 30.445263 11.775920 -15.556123 -16.104091 -28.831347 7.146527 49.495957 8.258740 -16.956450 -23.460080 -1.921883 -15.643811 14.919707 -37.408814 13.606820 -11.515420 -44.051156 -84.713034 24.176994 -2.750023 3.825919 0.906630 -0.092400 -0.241190 0.221180 -18.668546 34.004594 -8.865733 11.834340 43.054638 -23.433726 -85.682171 77.577959 -57.175282 6.415981 -3.950816 -0.518570 0.754940 0.297110 -0.243200 
2.536430 17.890620 -1.270490 5.622507 -11.103483 -16.081316 -14.358449 8.957303 3.191350 -50.047099 -0.316019 -46.582450 68.348191 -10.190602 35.974823 0.802817 12.924871 0.169333 0.427350 -0.116040 0.174470 19.500281 -9.140638 6.220453 -29.812563 36.497345 -18.963153 88.567132 -16.798382 23.182299 -2.271866 -10.280073 1.102495 0.231970 0.408880 -0.084370 -6.880408 6.191596 -9.589010 44.816558 4.133985 50.318974 -21.524486 13.830401 29.254453 11.326012 -14.326011 -15.117914 -27.456124 7.678255 51.609522 8.230600 -15.298370 -26.475060 -5.336677 -17.088250 14.282595 -35.177475 12.708751 -12.719666 -169.887145 -78.550459 150.946022 -3.310965 2.895711 1.119760 -0.116840 -0.219770 0.107870 -15.305407 35.095975 -7.175528 13.688704 42.195630 -26.782833 -96.122199 82.781427 -65.357225 4.832089 -1.882050 -0.690220 0.842880 0.414590 -0.385700 
2.622820 17.815930 -1.422140 8.905646 -6.948471 -14.569740 -14.624493 9.053202 3.868147 -49.286332 -7.400642 -54.337096 65.640363 -14.821674 46.044889 1.030761 14.473874 -0.303841 0.338990 -0.234870 0.211650 19.290248 -8.394091 6.012851 -29.419974 34.209075 -21.082201 88.273435 -17.158048 22.912745 -2.252545 -10.221310 1.130207 0.167560 0.415360 -0.065630 -5.985816 4.276969 -9.771977 34.097547 6.826773 54.080398 -19.187169 15.861824 24.649514 9.226452 -10.872395 -13.967514 -21.477914 6.054960 53.179935 7.293770 -12.010300 -25.936180 -9.379346 -17.179269 12.907154 -29.982716 9.396223 -9.325146 -178.975107 -62.608068 155.957412 -3.568518 2.851568 1.180720 -0.074930 -0.207970 0.038560 -9.718959 35.212951 -4.153953 13.417332 41.123788 -19.989227 -95.541450 79.511581 -71.213218 2.673065 0.864331 -0.751700 0.835710 0.461520 -0.457830 
2.645700 17.737930 -1.511140 11.735008 -4.589240 -14.107132 -14.940056 9.580765 4.264570 -40.142279 -11.469132 -64.581387 58.248593 -17.412675 60.415751 1.261251 15.993199 -0.714612 0.281950 -0.306190 0.276680 18.981227 -8.121014 5.500023 -25.674726 31.485024 -19.430586 77.749249 -20.263527 27.493897 -2.266201 -10.496365 1.071757 0.122400 0.414610 -0.095380 -4.987837 2.477197 -9.767404 22.999387 10.644013 57.718797 -15.826132 18.695278 21.108856 7.002312 -7.557507 -14.057832 -16.567911 3.963367 54.385870 6.781550 -8.692580 -26.012050 -10.128396 -17.216292 10.729683 -25.330064 3.783098 -6.594368 179.700813 -52.024580 155.365893 -3.684420 2.729640 1.239320 -0.063510 -0.178970 0.011230 -6.379014 34.965533 -0.380048 12.578045 38.181831 -17.972451 -102.766558 77.248558 -84.219421 1.993294 3.503513 -0.819770 0.880390 0.454350 -0.519210 
2.719850 17.639910 -1.570650 16.908986 1.758268 -12.281276 -15.366640 9.373724 5.543818 -27.569408 -17.925263 -77.736999 35.059235 -9.635580 90.562272 1.383288 16.697147 -0.898279 0.221180 -0.356980 0.255000 18.690685 -7.641384 4.577592 -25.615046 25.626192 -19.160068 61.256981 -23.061872 34.080686 -2.096170 -10.673583 1.017271 0.063900 0.427070 -0.095980 -3.908851 0.651179 -9.956876 10.130497 14.708778 58.387455 -11.370482 18.421504 18.034527 4.865574 -5.574078 -13.713760 -14.186147 2.321765 54.023530 7.246000 -7.431780 -23.952960 -8.067981 -16.967236 8.719402 -23.317238 -1.597202 -6.610351 172.831268 -48.227597 169.924346 -3.687786 2.723744 1.180320 -0.026340 -0.202410 -0.005790 -4.420882 34.208478 3.045583 12.501862 34.175992 -14.620986 -106.280886 72.419446 -95.373027 2.168555 3.332314 -0.798750 0.828090 0.449380 -0.514150 
2.777240 17.491910 -1.525850 20.808060 9.139937 -11.303826 -15.695796 9.382683 6.726557 -11.810048 -19.354234 -86.454903 19.751029 7.066569 105.504453 1.667797 17.232351 -0.937562 0.173890 -0.363190 0.225580 18.432222 -7.815602 3.211921 -21.608465 18.149775 -15.329663 38.648538 -20.791387 41.167795 -1.639180 -10.084410 1.200515 0.010550 0.447380 -0.118580 -3.044449 -0.825275 -9.864999 -0.450407 17.819616 57.422701 -5.025927 17.507916 17.415744 2.300003 -3.433815 -13.259164 -10.633527 0.071822 52.847891 7.256310 -6.408400 -19.701080 -4.409604 -16.041386 7.613217 -18.720017 -3.340621 -6.249737 167.590643 -45.403938 -175.955686 -3.646204 2.766346 1.041450 0.027090 -0.239700 0.013860 -2.706004 31.369612 6.226967 12.137127 28.778390 -11.069055 -112.868784 69.390766 -114.765480 2.135883 0.542780 -0.739870 0.769650 0.394950 -0.472010 
2.938270 17.311550 -1.520640 22.437463 12.755718 -10.145587 -15.900482 9.162230 8.156532 6.540205 -14.589368 -94.086192 8.258447 22.465023 109.145545 2.058148 18.897481 -1.263042 0.103630 -0.460090 0.176340 18.365343 -8.387701 1.674061 -15.741139 11.331718 -13.635699 16.613204 -13.451119 44.110460 -0.903558 -8.024840 1.879362 -0.041800 0.503970 -0.145300 -2.677931 -1.234411 -9.785711 -5.626308 17.538093 56.298650 -2.254107 15.886500 15.814131 0.874466 -4.124202 -12.406519 -12.269027 0.630792 50.611516 7.169220 -6.116270 -17.692130 -1.451440 -13.441426 7.464809 -16.393958 -1.273185 -5.180298 164.659020 -44.851879 -165.974332 -3.669137 2.748600 1.010400 0.063720 -0.303520 0.026080 -2.465409 27.958754 5.964139 11.260587 23.744695 -14.030560 -135.856522 75.340851 -142.733816 1.463208 -1.452975 -0.777000 0.776060 0.408410 -0.468910 
3.136370 17.148560 -1.527080 24.752216 14.136020 -7.735257 -16.112675 8.592128 9.590646 23.804164 -4.396766 -97.294472 -13.440004 42.994199 98.327829 2.648884 21.044825 -1.659703 0.049760 -0.583650 0.190840 18.354775 -8.454055 0.651516 -14.591698 7.324841 -13.842851 5.364788 -8.078322 39.651857 -0.395986 -5.993840 2.554473 -0.112990 0.480350 -0.153300 -2.342857 -1.517973 -9.921455 -10.221417 17.791319 54.018936 -1.057425 14.471443 14.255435 0.525913 -5.265066 -12.860479 -15.926967 2.330929 52.033915 6.783080 -6.137990 -16.811710 1.065933 -11.590290 7.505624 -11.882851 3.241209 -4.565246 163.750532 -47.350489 -161.758271 -3.634574 2.743459 1.067301 0.033830 -0.309940 -0.006140 -3.730902 25.865351 6.312299 8.387038 17.683749 -15.209073 -161.420611 76.576857 -168.028796 1.329496 -1.370665 -0.813110 0.754810 0.433300 -0.507750 
3.327470 17.015960 -1.546960 24.030832 17.229000 -6.075394 -16.234362 8.094979 10.352844 35.585071 3.050327 -93.797648 -29.610451 50.708886 84.237445 2.563083 19.997056 -1.334643 -0.047340 -0.703450 0.123120 18.417116 -8.120334 0.381021 -13.652068 6.197446 -15.088126 3.411575 -7.743429 39.226923 -0.323857 -5.662600 2.722602 -0.189250 0.553000 -0.208050 -2.191372 -1.736737 -10.225065 -10.421844 14.843713 53.331193 -0.493405 12.639906 13.092011 0.350377 -6.602823 -13.804106 -20.294148 4.202826 54.188030 9.501880 -7.857490 -15.773550 3.213141 -10.635600 7.994118 -8.156444 7.885905 -3.611306 163.679563 -48.849797 -159.422149 -3.633134 2.661028 1.108180 0.025640 -0.332530 -0.000730 -4.847579 24.633081 6.752620 3.075536 11.784834 -14.986266 -174.917672 76.089790 178.814283 1.321011 -1.149375 -0.875710 0.842410 0.476060 -0.488350 
